<svg width="40" height="42" viewBox="0 0 40 42" fill="none" xmlns="http://www.w3.org/2000/svg">
<g id="Frame">
<path id="Vector" d="M27.1371 12.9032C25.9677 5.70162 23.2097 0.645172 20 0.645172C16.7903 0.645172 14.0323 5.70162 12.8629 12.9032H27.1371ZM12.2581 20.6452C12.2581 22.4355 12.3548 24.1532 12.5242 25.8065H27.4677C27.6371 24.1532 27.7339 22.4355 27.7339 20.6452C27.7339 18.8548 27.6371 17.1371 27.4677 15.4839H12.5242C12.3548 17.1371 12.2581 18.8548 12.2581 20.6452ZM38.4436 12.9032C36.1371 7.42743 31.4677 3.19356 25.7016 1.48388C27.6694 4.20969 29.0242 8.31453 29.7339 12.9032H38.4436ZM14.2903 1.48388C8.53226 3.19356 3.85484 7.42743 1.55645 12.9032H10.2661C10.9677 8.31453 12.3226 4.20969 14.2903 1.48388ZM39.3065 15.4839H30.0565C30.2258 17.1774 30.3226 18.9113 30.3226 20.6452C30.3226 22.379 30.2258 24.1129 30.0565 25.8065H39.2984C39.7419 24.1532 39.9919 22.4355 39.9919 20.6452C39.9919 18.8548 39.7419 17.1371 39.3065 15.4839ZM9.67742 20.6452C9.67742 18.9113 9.77419 17.1774 9.94355 15.4839H0.693548C0.258065 17.1371 0 18.8548 0 20.6452C0 22.4355 0.258065 24.1532 0.693548 25.8065H9.93548C9.77419 24.1129 9.67742 22.379 9.67742 20.6452ZM12.8629 28.3871C14.0323 35.5887 16.7903 40.6452 20 40.6452C23.2097 40.6452 25.9677 35.5887 27.1371 28.3871H12.8629ZM25.7097 39.8065C31.4677 38.0968 36.1452 33.8629 38.4516 28.3871H29.7419C29.0323 32.9758 27.6774 37.0807 25.7097 39.8065ZM1.55645 28.3871C3.8629 33.8629 8.53226 38.0968 14.2984 39.8065C12.3306 37.0807 10.9758 32.9758 10.2661 28.3871H1.55645Z" fill="#FFB900"/>
</g>
</svg>
