<svg width="40" height="32" viewBox="0 0 40 32" fill="none" xmlns="http://www.w3.org/2000/svg">
<g id="Frame" clip-path="url(#clip0_441_114)">
<path id="Vector" d="M38.8225 3.39299C36.3981 2.37933 33.9719 1.99368 31.5469 1.99368C23.8488 1.99306 16.1512 5.8776 8.45312 5.8776C6.5225 5.8776 4.59312 5.63338 2.6625 5.02282C2.44562 4.95428 2.22813 4.92189 2.01562 4.92189C0.94 4.92189 0 5.75175 0 6.90372V26.6697C0 27.4566 0.451875 28.2024 1.1775 28.5051C3.60188 29.5194 6.02812 29.9051 8.45312 29.9051C16.1512 29.9051 23.8494 26.0205 31.5475 26.0205C33.4781 26.0205 35.4075 26.2648 37.3381 26.8753C37.555 26.9438 37.7725 26.9762 37.985 26.9762C39.0606 26.9762 40.0006 26.1464 40.0006 24.9944V5.22904C40 4.44154 39.5481 3.6964 38.8225 3.39299ZM3 8.23761C4.2575 8.55161 5.57 8.70924 6.92 8.79397C6.5525 10.625 4.9375 12.005 3 12.005V8.23761ZM3 25.9937V23.0169C5.14812 23.0169 6.88625 24.7159 6.98187 26.8423C5.57375 26.7295 4.2575 26.4492 3 25.9937ZM20 21.9304C17.2381 21.9304 15 19.252 15 15.9494C15 12.6461 17.2388 9.96837 20 9.96837C22.7612 9.96837 25 12.6461 25 15.9494C25 19.2533 22.7606 21.9304 20 21.9304ZM37 23.6611C35.905 23.3876 34.7681 23.2344 33.605 23.1353C33.9719 21.5105 35.3237 20.2769 37 20.0651V23.6611ZM37 8.95097C35.0694 8.70737 33.5713 7.1006 33.5119 5.11627C34.7331 5.25147 35.8925 5.50441 37 5.90502V8.95097Z" fill="#FFB900"/>
</g>
<defs>
<clipPath id="clip0_441_114">
<rect width="40" height="31.8987" fill="white"/>
</clipPath>
</defs>
</svg>
