<svg width="40" height="40" viewBox="0 0 40 40" fill="none" xmlns="http://www.w3.org/2000/svg">
<g id="Frame" clip-path="url(#clip0_441_128)">
<path id="Vector" d="M40.0001 0C35.9548 0.278125 7.53447 2.98437 5.54775 22.4695C5.30635 24.5523 5.16963 26.6445 5.07979 28.7383L19.054 14.7781C19.5423 14.2898 20.3353 14.2898 20.8235 14.7781C21.3118 15.2664 21.3118 16.0578 20.8235 16.5461L0.550098 36.7992C-0.182715 37.5312 -0.182715 38.7187 0.550098 39.4508C1.28291 40.1828 2.47119 40.1828 3.20479 39.4508L7.66807 34.9922C10.9563 34.9812 14.2423 34.7945 17.5087 34.4172C21.6868 33.9922 25.0884 32.3492 27.8665 30H19.9798L31.4478 26.1812C32.3267 25.018 33.1173 23.782 33.8267 22.5H27.4876L35.811 18.343C39.0853 10.3797 39.8587 2.05156 40.0001 0Z" fill="#FFB900"/>
</g>
<defs>
<clipPath id="clip0_441_128">
<rect width="40" height="40" fill="white"/>
</clipPath>
</defs>
</svg>
