<svg width="40" height="32" viewBox="0 0 40 32" fill="none" xmlns="http://www.w3.org/2000/svg">
<g id="Frame" clip-path="url(#clip0_441_107)">
<path id="Vector" d="M13 22C12.8507 22 12.7013 22.0219 12.5588 22.0681C11.7488 22.3312 10.8969 22.5 10 22.5C9.10316 22.5 8.25129 22.3312 7.44067 22.0681C7.29817 22.0219 7.14942 22 7.00004 22C3.12129 22 -0.0205851 25.155 3.99323e-05 29.0387C0.00878993 30.68 1.35816 32 3.00004 32H17C18.6419 32 19.9913 30.68 20 29.0387C20.0207 25.155 16.8788 22 13 22ZM10 20C13.3138 20 16 17.3137 16 14C16 10.6862 13.3138 8 10 8C6.68629 8 4.00004 10.6862 4.00004 14C4.00004 17.3137 6.68629 20 10 20ZM37 0H13C11.3457 0 10 1.39062 10 3.09938V6C11.4638 6 12.8188 6.42375 14 7.1125V4H36V22H32V18H24V22H19.235C20.4288 23.0431 21.305 24.4206 21.7157 26H37C38.6544 26 40 24.6094 40 22.9006V3.09938C40 1.39062 38.6544 0 37 0Z" fill="#FFB900"/>
</g>
<defs>
<clipPath id="clip0_441_107">
<rect width="40" height="32" fill="white"/>
</clipPath>
</defs>
</svg>
