<svg width="40" height="32" viewBox="0 0 40 32" fill="none" xmlns="http://www.w3.org/2000/svg">
<g id="Frame" clip-path="url(#clip0_441_121)">
<path id="Vector" d="M38.8962 9.575L21.4625 4.21875C20.5125 3.92688 19.4875 3.92688 18.5381 4.21875L1.10374 9.575C-0.367507 10.0269 -0.367507 11.9725 1.10374 12.4244L4.14312 13.3581C3.47624 14.1825 3.06624 15.1881 3.02562 16.2894C2.42374 16.6344 1.99999 17.2569 1.99999 18C1.99999 18.6738 2.35499 19.2406 2.86624 19.6031L1.27062 26.7831C1.13187 27.4075 1.60687 28 2.24624 28H5.75312C6.39312 28 6.86812 27.4075 6.72937 26.7831L5.13374 19.6031C5.64499 19.2406 5.99999 18.6738 5.99999 18C5.99999 17.2769 5.59562 16.6719 5.02124 16.3206C5.06874 15.3819 5.54874 14.5519 6.31437 14.0256L18.5375 17.7813C19.1037 17.955 20.19 18.1719 21.4619 17.7813L38.8962 12.425C40.3681 11.9725 40.3681 10.0275 38.8962 9.575ZM22.0494 19.6931C20.2662 20.2406 18.7469 19.9381 17.95 19.6931L8.88624 16.9088L7.99999 24C7.99999 26.2094 13.3725 28 20 28C26.6275 28 32 26.2094 32 24L31.1137 16.9081L22.0494 19.6931Z" fill="#FFB900"/>
</g>
<defs>
<clipPath id="clip0_441_121">
<rect width="40" height="32" fill="white"/>
</clipPath>
</defs>
</svg>
