<svg width="246" height="64" viewBox="0 0 246 64" fill="none" xmlns="http://www.w3.org/2000/svg">
<g id="Logo">
<g id="Group">
<path id="Subtract" d="M32 64C49.6731 64 64 49.6731 64 32C64 14.3269 49.6731 0 32 0C14.3269 0 0 14.3269 0 32C0 49.6731 14.3269 64 32 64Z" fill="#FFB900"/>
<g id="Group_2">
<path id="Vector" d="M75.2 26.0479C70.912 26.0479 67.904 28.9919 67.904 33.2799C67.904 37.7599 70.848 40.6399 75.392 40.6399C77.76 40.6399 80 39.7439 81.344 38.2719L81.472 38.1439L79.36 36.0959L79.232 36.2239C78.4 37.1199 76.736 37.6319 75.456 37.6319C73.216 37.6319 71.552 36.4159 71.232 34.5599H82.176V34.4319C82.432 31.7439 81.856 29.5679 80.512 28.0959C79.296 26.7519 77.44 26.0479 75.2 26.0479ZM79.104 31.8079H71.296C71.744 29.9519 73.216 28.8639 75.264 28.8639C77.504 28.9279 78.848 29.9519 79.104 31.8079Z" fill="white"/>
<path id="Vector_2" d="M92.16 26.176C90.496 26.176 89.024 26.816 87.744 28.096L87.616 26.368H84.672V40.256H87.872V33.024C87.872 30.784 89.408 29.12 91.456 29.12C93.632 29.12 94.912 30.528 94.912 32.832V40.256H98.112V32.832C98.176 28.864 95.744 26.176 92.16 26.176Z" fill="white"/>
<path id="Vector_3" d="M109.312 37.1199C108.736 37.3759 108.16 37.5679 107.648 37.5679C106.432 37.5679 105.856 36.9279 105.856 35.5199V29.2479H109.824V26.4319H105.856V22.4639L102.656 22.7839V26.3679H100.032V29.1839H102.656V35.4559C102.656 37.0559 103.04 38.2719 103.872 39.1039C104.64 39.9359 105.792 40.3839 107.264 40.3839C107.328 40.3839 107.392 40.3839 107.456 40.3839C108.416 40.3839 109.248 40.1919 110.272 39.7439L110.4 39.6799L109.44 36.9279L109.312 37.1199Z" fill="white"/>
<path id="Vector_4" d="M119.36 26.1121C118.208 26.1121 116.608 26.3041 115.52 27.8401L115.392 26.3681H112.448V40.2561H115.648V32.7681C115.648 30.1441 117.504 29.2481 119.104 29.2481C120.064 29.2481 120.704 29.4401 121.408 30.0161L121.6 30.1441L123.072 27.3921L122.944 27.3281C121.984 26.5601 120.704 26.1121 119.36 26.1121Z" fill="white"/>
<path id="Vector_5" d="M130.56 26.0479C126.272 26.0479 123.264 28.9919 123.264 33.2799C123.264 37.7599 126.208 40.6399 130.752 40.6399C133.12 40.6399 135.36 39.7439 136.704 38.2719L136.832 38.1439L134.72 36.0959L134.592 36.2239C133.76 37.1199 132.096 37.6319 130.816 37.6319C128.576 37.6319 126.912 36.4159 126.592 34.5599H137.536V34.4319C137.792 31.7439 137.216 29.5679 135.872 28.0959C134.656 26.7519 132.8 26.0479 130.56 26.0479ZM134.464 31.8079H126.656C127.104 29.9519 128.576 28.8639 130.624 28.8639C132.864 28.9279 134.208 29.9519 134.464 31.8079Z" fill="white"/>
<path id="Vector_6" d="M147.84 26.1121C145.984 26.1121 144.256 26.9441 143.168 28.2881L143.04 26.4321H140.032V46.5921H143.232V38.6561C144.384 40.0641 146.304 40.5761 147.84 40.5761C152.064 40.5761 154.88 37.6961 154.88 33.3441C154.88 29.1201 151.936 26.1121 147.84 26.1121ZM147.584 29.1841C150.016 29.1841 151.68 30.8481 151.68 33.3441C151.68 35.7121 149.952 37.5041 147.584 37.5041C145.28 37.5041 143.488 35.7121 143.488 33.3441C143.488 30.9121 145.152 29.1841 147.584 29.1841Z" fill="white"/>
<path id="Vector_7" d="M164.48 26.1121C163.328 26.1121 161.728 26.3041 160.64 27.8401L160.512 26.3681H157.568V40.2561H160.768V32.7681C160.768 30.1441 162.624 29.2481 164.224 29.2481C165.184 29.2481 165.824 29.4401 166.528 30.0161L166.72 30.1441L168.192 27.3921L168.064 27.3281C167.168 26.5601 165.824 26.1121 164.48 26.1121Z" fill="white"/>
<path id="Vector_8" d="M175.68 26.0479C171.392 26.0479 168.384 28.9919 168.384 33.2799C168.384 37.7599 171.328 40.6399 175.872 40.6399C178.24 40.6399 180.48 39.7439 181.824 38.2719L181.952 38.1439L179.84 36.0959L179.712 36.2239C178.88 37.1199 177.216 37.6319 175.936 37.6319C173.696 37.6319 172.032 36.4159 171.712 34.5599H182.656V34.4319C182.912 31.7439 182.336 29.5679 180.992 28.0959C179.776 26.7519 177.984 26.0479 175.68 26.0479ZM179.584 31.8079H171.776C172.224 29.9519 173.696 28.8639 175.744 28.8639C177.984 28.9279 179.328 29.9519 179.584 31.8079Z" fill="white"/>
<path id="Vector_9" d="M192.704 26.176C191.04 26.176 189.568 26.816 188.288 28.096L188.16 26.368H185.216V40.256H188.416V33.024C188.416 30.784 189.952 29.12 192 29.12C194.176 29.12 195.456 30.528 195.456 32.832V40.256H198.656V32.832C198.656 28.864 196.288 26.176 192.704 26.176Z" fill="white"/>
<path id="Vector_10" d="M208.384 26.0479C204.096 26.0479 201.088 28.9919 201.088 33.2799C201.088 37.7599 204.032 40.6399 208.576 40.6399C210.944 40.6399 213.184 39.7439 214.528 38.2719L214.656 38.1439L212.544 36.0959L212.416 36.2239C211.584 37.1199 209.92 37.6319 208.64 37.6319C206.4 37.6319 204.736 36.4159 204.416 34.5599H215.36V34.4319C215.616 31.7439 215.04 29.5679 213.696 28.0959C212.544 26.7519 210.688 26.0479 208.384 26.0479ZM212.288 31.8079H204.48C204.928 29.9519 206.4 28.8639 208.448 28.8639C210.688 28.9279 212.096 29.9519 212.288 31.8079Z" fill="white"/>
<path id="Vector_11" d="M227.968 33.6001C227.968 35.8401 226.432 37.5041 224.384 37.5041C222.208 37.5041 220.864 36.0961 220.864 33.7921V26.3681H217.664V33.7921C217.664 37.8241 219.968 40.4481 223.552 40.4481C225.344 40.4481 226.816 39.8081 228.096 38.4641L228.224 40.2561H231.104V26.3681H227.904V33.6001H227.968Z" fill="white"/>
<path id="Vector_12" d="M245.12 27.2639C244.288 26.4959 242.944 26.0479 241.664 26.0479C240.512 26.0479 238.912 26.2399 237.824 27.7759L237.696 26.3039H234.752V40.1919H237.952V32.7679C237.952 30.1439 239.808 29.2479 241.408 29.2479C242.368 29.2479 243.008 29.4399 243.712 30.0159L243.904 30.1439L245.376 27.3919L245.12 27.2639Z" fill="white"/>
</g>
</g>
<g id="Group_3">
<path id="Vector_13" d="M72.2779 49.8655C72.7887 50.3124 72.9802 50.8871 72.9802 51.5894C72.9802 52.2918 72.7248 52.8664 72.2779 53.3133C71.7671 53.7603 71.1925 54.0157 70.3624 54.0157H69.0216V56.8251H68V49.1631H70.2986C71.1925 49.1631 71.831 49.4185 72.2779 49.8655ZM71.5756 52.6749C71.8948 52.4195 72.0225 52.0364 72.0225 51.5894C72.0225 51.1425 71.8948 50.8232 71.5756 50.504C71.2563 50.2486 70.8732 50.057 70.3624 50.057H69.0216V53.0579H70.3624C70.8732 53.0579 71.3202 52.9303 71.5756 52.6749Z" fill="white"/>
<path id="Vector_14" d="M74.1933 56.7613V48.7163H75.0872V56.7613H74.1933Z" fill="white"/>
<path id="Vector_15" d="M78.7905 56.8889C78.2159 56.8889 77.7051 56.6973 77.3859 56.3142C77.0028 55.9311 76.8112 55.4203 76.8112 54.718V51.3978H77.7051V54.5264C77.7051 54.9734 77.8328 55.3565 78.0244 55.6119C78.2159 55.8673 78.5351 55.995 78.9182 55.995C79.3652 55.995 79.6844 55.8034 80.0037 55.4842C80.2591 55.1011 80.4506 54.6541 80.4506 54.0795V51.3978H81.3445V56.7612H80.4506V55.9311C80.0675 56.5696 79.4929 56.8889 78.7905 56.8889Z" fill="white"/>
<path id="Vector_16" d="M84.7924 56.8889C84.2178 56.8889 83.707 56.7612 83.26 56.442C82.8769 56.1227 82.6215 55.7396 82.5577 55.2288H83.5154C83.5793 55.5481 83.707 55.7396 83.9624 55.8673C84.2178 55.995 84.4732 56.0589 84.7924 56.0589C85.1117 56.0589 85.367 55.995 85.5586 55.8673C85.7501 55.7396 85.814 55.5481 85.814 55.3565C85.814 55.165 85.7501 54.9734 85.6224 54.8457C85.4947 54.718 85.2393 54.5903 84.9201 54.5265L84.1539 54.335C83.26 54.0796 82.7492 53.5688 82.7492 52.7387C82.7492 52.2918 82.9408 51.9725 83.26 51.7171C83.5793 51.4617 84.0262 51.334 84.6009 51.334C85.1755 51.334 85.6224 51.4617 85.9417 51.781C86.3248 52.1002 86.5163 52.4195 86.5163 52.8664H85.6224C85.5586 52.611 85.4309 52.4195 85.2393 52.2918C85.0478 52.1641 84.8563 52.1002 84.6009 52.1002C84.3455 52.1002 84.0901 52.1641 83.9624 52.2918C83.7708 52.4195 83.707 52.5472 83.707 52.8026C83.707 52.9941 83.7708 53.1218 83.8985 53.2495C84.0262 53.3772 84.2178 53.4411 84.537 53.5688L85.367 53.8242C86.2609 54.0796 86.7717 54.5903 86.7717 55.4204C86.7717 55.9312 86.5802 56.3143 86.1971 56.5697C85.8778 56.7612 85.367 56.8889 84.7924 56.8889Z" fill="white"/>
<path id="Vector_17" d="M92.9013 56.8891C92.1351 56.8891 91.5604 56.6337 91.0496 56.059C90.5389 55.4844 90.2834 54.8459 90.2834 54.0797C90.2834 53.3135 90.5389 52.675 91.0496 52.1004C91.5604 51.5257 92.1989 51.2703 92.9013 51.2703C93.2844 51.2703 93.6675 51.3342 93.9867 51.5257C94.306 51.7173 94.5614 51.9088 94.7529 52.2281V48.7163H95.6468V56.7614H94.7529V55.9313C94.5614 56.1867 94.306 56.4421 93.9867 56.6337C93.6675 56.8252 93.2844 56.8891 92.9013 56.8891ZM93.029 56.059C93.5398 56.059 93.9867 55.8675 94.3698 55.4844C94.6891 55.1013 94.8806 54.6543 94.8806 54.0797C94.8806 53.505 94.6891 53.0581 94.3698 52.675C94.0506 52.2919 93.6036 52.1004 93.029 52.1004C92.5182 52.1004 92.0712 52.2919 91.6881 52.675C91.305 53.0581 91.1773 53.505 91.1773 54.0797C91.1773 54.6543 91.3689 55.1013 91.6881 55.4844C92.0712 55.8675 92.5182 56.059 93.029 56.059Z" fill="white"/>
<path id="Vector_18" d="M99.7331 56.8889C98.9669 56.8889 98.3284 56.6335 97.8176 56.1227C97.3068 55.6119 97.0514 54.9095 97.0514 54.1433C97.0514 53.3133 97.3068 52.6748 97.8176 52.164C98.3284 51.6532 98.9669 51.3978 99.7969 51.3978C100.627 51.3978 101.265 51.7171 101.776 52.2917C102.223 52.8663 102.479 53.5687 102.415 54.4626H98.073C98.073 54.9734 98.2645 55.3565 98.5838 55.6757C98.903 55.995 99.35 56.1865 99.8608 56.1865C100.563 56.1865 101.138 55.8673 101.393 55.2926H102.351C102.223 55.8034 101.904 56.1865 101.457 56.5696C100.946 56.6973 100.372 56.8889 99.7331 56.8889ZM100.755 52.4832C100.435 52.2279 100.116 52.1002 99.6692 52.1002C99.2861 52.1002 98.903 52.2279 98.5838 52.4832C98.2645 52.7386 98.073 53.1217 97.9453 53.5687H101.265C101.265 53.1217 101.074 52.7386 100.755 52.4832Z" fill="white"/>
<path id="Vector_19" d="M108.161 56.8251C107.65 56.8251 107.267 56.6974 106.948 56.3782C106.629 56.1228 106.501 55.6758 106.501 55.165V52.228H105.352V51.3979H106.501V49.9294H107.395V51.3979H108.927V52.228H107.395V55.0373C107.395 55.3566 107.459 55.612 107.587 55.7397C107.714 55.8674 107.97 55.9312 108.289 55.9312C108.544 55.9312 108.8 55.8674 108.927 55.8035V56.6336C108.736 56.7613 108.417 56.8251 108.161 56.8251Z" fill="white"/>
<path id="Vector_20" d="M110.141 56.7612V51.3978H111.034V52.4832C111.162 52.164 111.354 51.9086 111.609 51.7171C111.928 51.5255 112.184 51.3978 112.503 51.3978C112.631 51.3978 112.822 51.3978 112.95 51.4617V52.4194C112.822 52.3556 112.631 52.3556 112.439 52.3556C112.056 52.3556 111.737 52.5471 111.481 52.8663C111.226 53.1856 111.034 53.6325 111.034 54.2072V56.8889H110.141V56.7612Z" fill="white"/>
<path id="Vector_21" d="M116.142 56.8889C115.376 56.8889 114.801 56.6335 114.291 56.0589C113.78 55.4842 113.524 54.8457 113.524 54.0796C113.524 53.3134 113.78 52.6749 114.291 52.1002C114.801 51.5256 115.44 51.2702 116.142 51.2702C116.525 51.2702 116.908 51.334 117.228 51.5256C117.547 51.7171 117.802 51.9087 117.994 52.2279V51.3979H118.888V56.7612H117.994V55.9312C117.802 56.1866 117.547 56.442 117.228 56.6335C116.908 56.8251 116.525 56.8889 116.142 56.8889ZM116.27 56.0589C116.781 56.0589 117.228 55.8673 117.611 55.4842C117.93 55.1011 118.122 54.6542 118.122 54.0796C118.122 53.5049 117.93 53.058 117.611 52.6749C117.292 52.2918 116.845 52.1002 116.27 52.1002C115.759 52.1002 115.312 52.2918 114.929 52.6749C114.61 53.058 114.418 53.5049 114.418 54.0796C114.418 54.6542 114.61 55.1011 114.929 55.4842C115.248 55.8673 115.695 56.0589 116.27 56.0589Z" fill="white"/>
<path id="Vector_22" d="M121.123 56.7611V52.2278H119.973V51.3978H121.123V50.3124C121.123 49.8016 121.25 49.3546 121.57 49.0992C121.889 48.8438 122.272 48.6523 122.783 48.6523C123.102 48.6523 123.357 48.7161 123.613 48.78V49.61C123.421 49.5462 123.23 49.4823 122.974 49.4823C122.655 49.4823 122.464 49.5462 122.272 49.6739C122.144 49.8016 122.08 50.057 122.08 50.3762V51.334H123.613V52.164H122.08V56.6973H121.123V56.7611ZM125.528 49.8016C125.401 49.9293 125.273 49.9931 125.081 49.9931C124.89 49.9931 124.762 49.9293 124.634 49.8016C124.507 49.6739 124.443 49.5462 124.443 49.3546C124.443 49.1631 124.507 49.0354 124.634 48.9077C124.762 48.78 124.89 48.7161 125.081 48.7161C125.273 48.7161 125.401 48.78 125.528 48.9077C125.656 49.0354 125.72 49.1631 125.72 49.3546C125.72 49.4823 125.656 49.6739 125.528 49.8016ZM124.634 56.7611V51.3978H125.528V56.7611H124.634Z" fill="white"/>
<path id="Vector_23" d="M129.678 56.8889C128.848 56.8889 128.21 56.6335 127.699 56.0589C127.188 55.5481 126.933 54.8457 126.933 54.0796C126.933 53.3134 127.188 52.611 127.699 52.1002C128.21 51.5894 128.912 51.2702 129.678 51.2702C130.317 51.2702 130.892 51.4617 131.402 51.8448C131.913 52.2279 132.232 52.6749 132.36 53.3134H131.402C131.275 52.9941 131.083 52.6749 130.764 52.4833C130.445 52.2918 130.125 52.1641 129.678 52.1641C129.104 52.1641 128.657 52.3556 128.338 52.7387C128.018 53.1218 127.827 53.5688 127.827 54.1434C127.827 54.718 128.018 55.165 128.338 55.5481C128.657 55.9312 129.104 56.1227 129.678 56.1227C130.062 56.1227 130.445 55.995 130.764 55.8035C131.083 55.6119 131.275 55.2927 131.402 54.9734H132.36C132.232 55.5481 131.849 56.0589 131.402 56.442C130.892 56.6974 130.317 56.8889 129.678 56.8889Z" fill="white"/>
<path id="Vector_24" d="M138.426 56.8889C137.66 56.8889 137.021 56.6335 136.51 56.1227C136 55.6119 135.744 54.9095 135.744 54.1433C135.744 53.3133 136 52.6748 136.51 52.164C137.021 51.6532 137.66 51.3978 138.49 51.3978C139.32 51.3978 139.958 51.7171 140.469 52.2917C140.916 52.8663 141.171 53.5687 141.107 54.4626H136.766C136.766 54.9734 136.957 55.3565 137.277 55.6757C137.596 55.995 138.043 56.1865 138.554 56.1865C139.256 56.1865 139.83 55.8673 140.086 55.2926H141.044C140.916 55.8034 140.597 56.1865 140.15 56.5696C139.639 56.6973 139.128 56.8889 138.426 56.8889ZM139.511 52.4832C139.192 52.2279 138.873 52.1002 138.426 52.1002C138.043 52.1002 137.66 52.2279 137.34 52.4832C137.021 52.7386 136.83 53.1217 136.702 53.5687H140.022C139.958 53.1217 139.83 52.7386 139.511 52.4832Z" fill="white"/>
<path id="Vector_25" d="M144.364 56.8251C143.853 56.8251 143.47 56.6974 143.151 56.3782C142.831 56.1228 142.704 55.6758 142.704 55.165V52.228H141.554V51.3979H142.704V49.9294H143.598V51.3979H145.13V52.228H143.598V55.0373C143.598 55.3566 143.661 55.612 143.789 55.7397C143.917 55.8674 144.172 55.9312 144.491 55.9312C144.747 55.9312 145.002 55.8674 145.13 55.8035V56.6336C144.938 56.7613 144.683 56.8251 144.364 56.8251Z" fill="white"/>
<path id="Vector_26" d="M151.196 56.8891C150.43 56.8891 149.855 56.6337 149.344 56.059C148.833 55.4844 148.578 54.8459 148.578 54.0797C148.578 53.3135 148.833 52.675 149.344 52.1004C149.855 51.5257 150.493 51.2703 151.196 51.2703C151.579 51.2703 151.962 51.3342 152.281 51.5257C152.6 51.7173 152.856 51.9088 153.047 52.2281V48.7163H153.941V56.7614H153.047V55.9313C152.856 56.1867 152.6 56.4421 152.281 56.6337C151.962 56.8252 151.579 56.8891 151.196 56.8891ZM151.323 56.059C151.834 56.059 152.281 55.8675 152.664 55.4844C152.984 55.1013 153.175 54.6543 153.175 54.0797C153.175 53.505 152.984 53.0581 152.664 52.675C152.345 52.2919 151.898 52.1004 151.323 52.1004C150.813 52.1004 150.366 52.2919 149.983 52.675C149.663 53.0581 149.472 53.505 149.472 54.0797C149.472 54.6543 149.663 55.1013 149.983 55.4844C150.366 55.8675 150.813 56.059 151.323 56.059Z" fill="white"/>
<path id="Vector_27" d="M158.027 56.8889C157.261 56.8889 156.623 56.6335 156.112 56.1227C155.601 55.6119 155.346 54.9095 155.346 54.1433C155.346 53.3133 155.601 52.6748 156.112 52.164C156.623 51.6532 157.261 51.3978 158.091 51.3978C158.921 51.3978 159.56 51.7171 160.071 52.2917C160.518 52.8663 160.773 53.5687 160.709 54.4626H156.367C156.367 54.9734 156.559 55.3565 156.878 55.6757C157.197 55.995 157.644 56.1865 158.155 56.1865C158.858 56.1865 159.432 55.8673 159.688 55.2926H160.645C160.518 55.8034 160.198 56.1865 159.751 56.5696C159.241 56.6973 158.666 56.8889 158.027 56.8889ZM159.113 52.4832C158.794 52.2279 158.474 52.1002 158.027 52.1002C157.581 52.1002 157.261 52.2279 156.942 52.4832C156.623 52.7386 156.431 53.1217 156.304 53.5687H159.624C159.56 53.1217 159.368 52.7386 159.113 52.4832Z" fill="white"/>
<path id="Vector_28" d="M164.54 56.7612V51.3978H165.434V52.4832C165.562 52.164 165.753 51.9086 166.009 51.7171C166.328 51.5255 166.583 51.3978 166.903 51.3978C167.03 51.3978 167.222 51.3978 167.35 51.4617V52.4194C167.222 52.3556 167.03 52.3556 166.839 52.3556C166.456 52.3556 166.136 52.5471 165.881 52.8663C165.626 53.1856 165.434 53.6325 165.434 54.2072V56.8889H164.54V56.7612Z" fill="white"/>
<path id="Vector_29" d="M170.606 56.8889C169.84 56.8889 169.201 56.6335 168.69 56.1227C168.18 55.6119 167.924 54.9095 167.924 54.1433C167.924 53.3133 168.18 52.6748 168.69 52.164C169.201 51.6532 169.84 51.3978 170.67 51.3978C171.5 51.3978 172.138 51.7171 172.649 52.2917C173.096 52.8663 173.351 53.5687 173.288 54.4626H168.946C168.946 54.9734 169.137 55.3565 169.457 55.6757C169.776 55.995 170.223 56.1865 170.734 56.1865C171.436 56.1865 172.011 55.8673 172.266 55.2926H173.224C173.096 55.8034 172.777 56.1865 172.33 56.5696C171.755 56.6973 171.244 56.8889 170.606 56.8889ZM171.627 52.4832C171.308 52.2279 170.989 52.1002 170.542 52.1002C170.095 52.1002 169.776 52.2279 169.457 52.4832C169.137 52.7386 168.946 53.1217 168.818 53.5687H172.138C172.138 53.1217 171.947 52.7386 171.627 52.4832Z" fill="white"/>
<path id="Vector_30" d="M176.097 56.7612L173.607 51.3978H174.628L176.48 55.4842L178.332 51.3978H179.353L176.863 56.7612H176.097Z" fill="white"/>
<path id="Vector_31" d="M182.418 56.8889C181.652 56.8889 181.013 56.6335 180.503 56.1227C179.992 55.6119 179.736 54.9095 179.736 54.1433C179.736 53.3133 179.992 52.6748 180.503 52.164C181.013 51.6532 181.652 51.3978 182.482 51.3978C183.312 51.3978 183.95 51.7171 184.461 52.2917C184.908 52.8663 185.164 53.5687 185.1 54.4626H180.758C180.758 54.9734 180.949 55.3565 181.269 55.6757C181.588 55.995 182.035 56.1865 182.546 56.1865C183.248 56.1865 183.823 55.8673 184.078 55.2926H185.036C184.908 55.8034 184.589 56.1865 184.142 56.5696C183.631 56.6973 183.12 56.8889 182.418 56.8889ZM183.503 52.4832C183.184 52.2279 182.865 52.1002 182.418 52.1002C181.971 52.1002 181.652 52.2279 181.333 52.4832C181.013 52.7386 180.822 53.1217 180.694 53.5687H184.014C183.95 53.1217 183.759 52.7386 183.503 52.4832Z" fill="white"/>
<path id="Vector_32" d="M186.377 56.7612V51.3979H187.271V52.2279C187.654 51.5894 188.228 51.2702 188.994 51.2702C189.633 51.2702 190.08 51.4617 190.463 51.8448C190.846 52.2279 191.038 52.7387 191.038 53.4411V56.7612H190.144V53.5688C190.144 53.1218 190.016 52.7387 189.825 52.4833C189.569 52.2279 189.314 52.1002 188.931 52.1002C188.484 52.1002 188.101 52.2918 187.845 52.611C187.526 52.9303 187.398 53.4411 187.398 54.0796V56.7612H186.377Z" fill="white"/>
<path id="Vector_33" d="M194.613 56.8889C194.039 56.8889 193.528 56.6973 193.209 56.3142C192.825 55.9311 192.634 55.4203 192.634 54.718V51.3978H193.528V54.5264C193.528 54.9734 193.656 55.3565 193.847 55.6119C194.039 55.8673 194.358 55.995 194.741 55.995C195.188 55.995 195.507 55.8034 195.826 55.4842C196.082 55.1011 196.273 54.6541 196.273 54.0795V51.3978H197.167V56.7612H196.273V55.9311C195.89 56.5696 195.316 56.8889 194.613 56.8889Z" fill="white"/>
<path id="Vector_34" d="M200.615 56.8889C200.04 56.8889 199.53 56.7612 199.083 56.442C198.7 56.1227 198.444 55.7396 198.38 55.2288H199.338C199.402 55.5481 199.53 55.7396 199.785 55.8673C200.04 55.995 200.296 56.0589 200.615 56.0589C200.934 56.0589 201.19 55.995 201.381 55.8673C201.573 55.7396 201.637 55.5481 201.637 55.3565C201.637 55.165 201.573 54.9734 201.445 54.8457C201.317 54.718 201.062 54.5903 200.743 54.5265L199.977 54.335C199.083 54.0796 198.572 53.5688 198.572 52.7387C198.572 52.2918 198.763 51.9725 199.083 51.7171C199.402 51.4617 199.849 51.334 200.424 51.334C200.998 51.334 201.445 51.4617 201.764 51.781C202.147 52.1002 202.339 52.4195 202.339 52.8664H201.445C201.381 52.611 201.254 52.4195 201.062 52.2918C200.87 52.1641 200.679 52.1002 200.424 52.1002C200.168 52.1002 199.913 52.1641 199.785 52.2918C199.593 52.4195 199.53 52.5472 199.53 52.8026C199.53 52.9941 199.593 53.1218 199.721 53.2495C199.849 53.3772 200.04 53.4411 200.36 53.5688L201.19 53.8242C202.084 54.0796 202.594 54.5903 202.594 55.4204C202.594 55.9312 202.403 56.3143 202.02 56.5697C201.701 56.7612 201.254 56.8889 200.615 56.8889Z" fill="white"/>
<path id="Vector_35" d="M208.788 56.8889C208.022 56.8889 207.383 56.6335 206.872 56.1227C206.361 55.6119 206.106 54.9095 206.106 54.1433C206.106 53.3133 206.361 52.6748 206.872 52.164C207.383 51.6532 208.022 51.3978 208.852 51.3978C209.682 51.3978 210.32 51.7171 210.831 52.2917C211.278 52.8663 211.533 53.5687 211.469 54.4626H207.128C207.128 54.9734 207.319 55.3565 207.638 55.6757C207.958 55.995 208.405 56.1865 208.915 56.1865C209.618 56.1865 210.192 55.8673 210.448 55.2926H211.406C211.278 55.8034 210.959 56.1865 210.512 56.5696C210.001 56.6973 209.426 56.8889 208.788 56.8889ZM209.873 52.4832C209.554 52.2279 209.235 52.1002 208.788 52.1002C208.341 52.1002 208.021 52.2279 207.702 52.4832C207.383 52.7386 207.191 53.1217 207.064 53.5687H210.384C210.32 53.1217 210.129 52.7386 209.873 52.4832Z" fill="white"/>
<path id="Vector_36" d="M212.746 56.7612V51.3979H213.64V52.2279C214.023 51.5894 214.598 51.2702 215.364 51.2702C216.003 51.2702 216.45 51.4617 216.833 51.8448C217.216 52.2279 217.407 52.7387 217.407 53.4411V56.7612H216.514V53.5688C216.514 53.1218 216.386 52.7387 216.194 52.4833C215.939 52.2279 215.684 52.1002 215.3 52.1002C214.853 52.1002 214.47 52.2918 214.215 52.611C213.896 52.9303 213.768 53.4411 213.768 54.0796V56.7612H212.746Z" fill="white"/>
<path id="Vector_37" d="M221.621 56.7613V48.7163H222.515V56.7613H221.621Z" fill="white"/>
<path id="Vector_38" d="M225.261 49.8018C225.133 49.9295 225.006 49.9933 224.814 49.9933C224.622 49.9933 224.495 49.9295 224.367 49.8018C224.239 49.6741 224.176 49.5464 224.176 49.3548C224.176 49.1633 224.239 49.0356 224.367 48.9079C224.495 48.7802 224.622 48.7163 224.814 48.7163C225.006 48.7163 225.133 48.7802 225.261 48.9079C225.389 49.0356 225.453 49.1633 225.453 49.3548C225.453 49.4825 225.389 49.6741 225.261 49.8018ZM224.303 56.7613V51.398H225.197V56.7613H224.303Z" fill="white"/>
<path id="Vector_39" d="M229.347 59.1237C228.645 59.1237 228.07 58.9321 227.559 58.6129C227.113 58.2936 226.793 57.8467 226.729 57.272H227.623C227.879 57.9744 228.453 58.2936 229.347 58.2936C229.858 58.2936 230.241 58.1021 230.56 57.7828C230.88 57.4636 231.007 57.0166 231.007 56.442V55.8035C230.816 56.0589 230.56 56.3143 230.241 56.5058C229.922 56.6974 229.539 56.7612 229.156 56.7612C228.39 56.7612 227.751 56.5058 227.304 55.995C226.793 55.4842 226.538 54.8457 226.538 54.0157C226.538 53.2495 226.793 52.611 227.304 52.1002C227.815 51.5894 228.453 51.334 229.156 51.334C229.539 51.334 229.922 51.3979 230.241 51.5894C230.56 51.781 230.816 51.9725 231.007 52.2918V51.4617H231.901V56.5058C231.901 57.3359 231.646 58.0382 231.135 58.4852C230.752 58.8683 230.113 59.1237 229.347 59.1237ZM228.006 55.3565C228.326 55.7396 228.773 55.8673 229.347 55.8673C229.858 55.8673 230.305 55.6758 230.688 55.3565C231.007 54.9734 231.199 54.5265 231.199 54.0157C231.199 53.4411 231.007 52.9941 230.688 52.6749C230.369 52.2918 229.922 52.1641 229.411 52.1641C228.9 52.1641 228.453 52.3556 228.134 52.6749C227.815 53.058 227.623 53.5049 227.623 54.0157C227.496 54.5903 227.687 55.0373 228.006 55.3565Z" fill="white"/>
<path id="Vector_40" d="M233.753 56.7612V51.3979H234.647V52.2279C235.03 51.5894 235.604 51.2702 236.371 51.2702C237.009 51.2702 237.456 51.4617 237.839 51.8448C238.222 52.2279 238.414 52.7387 238.414 53.4411V56.7612H237.52V53.5688C237.52 53.1218 237.392 52.7387 237.201 52.4833C236.945 52.2279 236.69 52.1002 236.307 52.1002C235.86 52.1002 235.477 52.2918 235.221 52.611C234.902 52.9303 234.774 53.4411 234.774 54.0796V56.7612H233.753Z" fill="white"/>
<path id="Vector_41" d="M242.309 56.8889C241.543 56.8889 240.904 56.6335 240.393 56.1227C239.882 55.6119 239.627 54.9095 239.627 54.1433C239.627 53.3133 239.882 52.6748 240.393 52.164C240.904 51.6532 241.543 51.3978 242.373 51.3978C243.203 51.3978 243.841 51.7171 244.352 52.2917C244.799 52.8663 245.054 53.5687 244.99 54.4626H240.649C240.649 54.9734 240.84 55.3565 241.159 55.6757C241.479 55.995 241.926 56.1865 242.436 56.1865C243.139 56.1865 243.713 55.8673 243.969 55.2926H244.927C244.799 55.8034 244.48 56.1865 244.033 56.5696C243.522 56.6973 243.011 56.8889 242.309 56.8889ZM243.394 52.4832C243.075 52.2279 242.756 52.1002 242.309 52.1002C241.862 52.1002 241.543 52.2279 241.223 52.4832C240.904 52.7386 240.713 53.1217 240.585 53.5687H243.905C243.841 53.1217 243.65 52.7386 243.394 52.4832Z" fill="white"/>
</g>
</g>
</svg>
